<svg xmlns="http://www.w3.org/2000/svg" version="1.1" xmlns:xlink="http://www.w3.org/1999/xlink" xmlns:svgjs="http://svgjs.dev/svgjs" viewBox="0 0 800 800" opacity="0.49"><defs><linearGradient x1="50%" y1="0%" x2="50%" y2="100%" id="vvvortex-grad"><stop stop-color="hsl(0, 0%, 76%)" stop-opacity="1" offset="0%"></stop><stop stop-color="hsl(0, 0%, 47%)" stop-opacity="1" offset="100%"></stop></linearGradient></defs><g stroke="url(#vvvortex-grad)" fill="none" stroke-linecap="round"><circle r="1122" cx="400" cy="400" stroke-width="7" stroke-dasharray="55 28" stroke-dashoffset="25" transform="rotate(237, 400, 400)" opacity="0.28"></circle><circle r="1088" cx="400" cy="400" stroke-width="7" stroke-dasharray="35 49" stroke-dashoffset="25" transform="rotate(2, 400, 400)" opacity="0.62"></circle><circle r="1054" cx="400" cy="400" stroke-width="7" stroke-dasharray="20 15" stroke-dashoffset="25" transform="rotate(348, 400, 400)" opacity="0.62"></circle><circle r="1020" cx="400" cy="400" stroke-width="6" stroke-dasharray="24 28" stroke-dashoffset="25" transform="rotate(305, 400, 400)" opacity="0.86"></circle><circle r="986" cx="400" cy="400" stroke-width="6" stroke-dasharray="37 38" stroke-dashoffset="25" transform="rotate(170, 400, 400)" opacity="0.79"></circle><circle r="952" cx="400" cy="400" stroke-width="6" stroke-dasharray="38 17" stroke-dashoffset="25" transform="rotate(45, 400, 400)" opacity="0.44"></circle><circle r="918" cx="400" cy="400" stroke-width="6" stroke-dasharray="12 34" stroke-dashoffset="25" transform="rotate(276, 400, 400)" opacity="0.35"></circle><circle r="884" cx="400" cy="400" stroke-width="6" stroke-dasharray="10 40" stroke-dashoffset="25" transform="rotate(317, 400, 400)" opacity="0.60"></circle><circle r="850" cx="400" cy="400" stroke-width="6" stroke-dasharray="45 19" stroke-dashoffset="25" transform="rotate(247, 400, 400)" opacity="0.28"></circle><circle r="816" cx="400" cy="400" stroke-width="5" stroke-dasharray="18 21" stroke-dashoffset="25" transform="rotate(183, 400, 400)" opacity="0.82"></circle><circle r="782" cx="400" cy="400" stroke-width="5" stroke-dasharray="53 18" stroke-dashoffset="25" transform="rotate(54, 400, 400)" opacity="0.99"></circle><circle r="748" cx="400" cy="400" stroke-width="5" stroke-dasharray="40 16" stroke-dashoffset="25" transform="rotate(83, 400, 400)" opacity="0.13"></circle><circle r="714" cx="400" cy="400" stroke-width="5" stroke-dasharray="33 41" stroke-dashoffset="25" transform="rotate(216, 400, 400)" opacity="0.44"></circle><circle r="680" cx="400" cy="400" stroke-width="5" stroke-dasharray="13 23" stroke-dashoffset="25" transform="rotate(326, 400, 400)" opacity="0.45"></circle><circle r="646" cx="400" cy="400" stroke-width="4" stroke-dasharray="23 50" stroke-dashoffset="25" transform="rotate(116, 400, 400)" opacity="0.42"></circle><circle r="612" cx="400" cy="400" stroke-width="4" stroke-dasharray="43 17" stroke-dashoffset="25" transform="rotate(253, 400, 400)" opacity="0.36"></circle><circle r="578" cx="400" cy="400" stroke-width="4" stroke-dasharray="38 32" stroke-dashoffset="25" transform="rotate(40, 400, 400)" opacity="0.21"></circle><circle r="544" cx="400" cy="400" stroke-width="4" stroke-dasharray="42 22" stroke-dashoffset="25" transform="rotate(16, 400, 400)" opacity="0.28"></circle><circle r="510" cx="400" cy="400" stroke-width="4" stroke-dasharray="15 42" stroke-dashoffset="25" transform="rotate(342, 400, 400)" opacity="0.93"></circle><circle r="476" cx="400" cy="400" stroke-width="3" stroke-dasharray="40 27" stroke-dashoffset="25" transform="rotate(179, 400, 400)" opacity="0.15"></circle><circle r="442" cx="400" cy="400" stroke-width="3" stroke-dasharray="46 12" stroke-dashoffset="25" transform="rotate(303, 400, 400)" opacity="0.35"></circle><circle r="408" cx="400" cy="400" stroke-width="3" stroke-dasharray="17 22" stroke-dashoffset="25" transform="rotate(44, 400, 400)" opacity="0.76"></circle><circle r="374" cx="400" cy="400" stroke-width="3" stroke-dasharray="19 48" stroke-dashoffset="25" transform="rotate(344, 400, 400)" opacity="0.62"></circle><circle r="340" cx="400" cy="400" stroke-width="3" stroke-dasharray="54 31" stroke-dashoffset="25" transform="rotate(58, 400, 400)" opacity="0.65"></circle><circle r="306" cx="400" cy="400" stroke-width="3" stroke-dasharray="26 11" stroke-dashoffset="25" transform="rotate(339, 400, 400)" opacity="0.09"></circle><circle r="272" cx="400" cy="400" stroke-width="2" stroke-dasharray="47 43" stroke-dashoffset="25" transform="rotate(57, 400, 400)" opacity="0.46"></circle><circle r="238" cx="400" cy="400" stroke-width="2" stroke-dasharray="29 28" stroke-dashoffset="25" transform="rotate(294, 400, 400)" opacity="0.30"></circle><circle r="204" cx="400" cy="400" stroke-width="2" stroke-dasharray="13 50" stroke-dashoffset="25" transform="rotate(294, 400, 400)" opacity="0.26"></circle><circle r="170" cx="400" cy="400" stroke-width="2" stroke-dasharray="20 13" stroke-dashoffset="25" transform="rotate(162, 400, 400)" opacity="0.49"></circle><circle r="136" cx="400" cy="400" stroke-width="2" stroke-dasharray="34 38" stroke-dashoffset="25" transform="rotate(30, 400, 400)" opacity="0.33"></circle><circle r="102" cx="400" cy="400" stroke-width="1" stroke-dasharray="11 50" stroke-dashoffset="25" transform="rotate(108, 400, 400)" opacity="0.87"></circle><circle r="68" cx="400" cy="400" stroke-width="1" stroke-dasharray="29 30" stroke-dashoffset="25" transform="rotate(190, 400, 400)" opacity="0.38"></circle><circle r="34" cx="400" cy="400" stroke-width="1" stroke-dasharray="30 42" stroke-dashoffset="25" transform="rotate(308, 400, 400)" opacity="0.84"></circle></g></svg>